<svg width="35" height="35" viewBox="0 0 35 35" fill="none" xmlns="http://www.w3.org/2000/svg">
<g clip-path="url(#clip0_1_946)">
<path d="M17.5044 0H17.4956C7.84656 0 0 7.84875 0 17.5C0 21.3281 1.23375 24.8763 3.33156 27.7572L1.15063 34.2584L7.87719 32.1081C10.6444 33.9413 13.9453 35 17.5044 35C27.1534 35 35 27.1491 35 17.5C35 7.85094 27.1534 0 17.5044 0Z" fill="white"/>
<path d="M27.6871 24.712C27.265 25.9042 25.5893 26.893 24.2528 27.1817C23.3384 27.3764 22.144 27.5317 18.1234 25.8648C12.9806 23.7342 9.66871 18.5083 9.41058 18.1692C9.1634 17.8302 7.33246 15.402 7.33246 12.8908C7.33246 10.3795 8.60777 9.15672 9.12183 8.63172C9.54402 8.20078 10.2418 8.00391 10.9112 8.00391C11.1278 8.00391 11.3225 8.01484 11.4975 8.02359C12.0115 8.04547 12.2696 8.07609 12.6087 8.88766C13.0309 9.90484 14.059 12.4161 14.1815 12.6742C14.3062 12.9323 14.4309 13.2823 14.2559 13.6214C14.0918 13.9714 13.9475 14.1267 13.6893 14.4242C13.4312 14.7217 13.1862 14.9492 12.9281 15.2686C12.6918 15.5464 12.425 15.8439 12.7225 16.358C13.02 16.8611 14.0481 18.5389 15.5618 19.8864C17.5153 21.6255 19.099 22.1811 19.6656 22.4173C20.0878 22.5923 20.5909 22.5508 20.8993 22.2227C21.2909 21.8005 21.7743 21.1005 22.2665 20.4114C22.6165 19.917 23.0584 19.8558 23.5221 20.0308C23.9946 20.1948 26.495 21.4308 27.009 21.6867C27.5231 21.9448 27.8621 22.0673 27.9868 22.2839C28.1093 22.5005 28.1093 23.5176 27.6871 24.712Z" fill="#2A2367"/>
</g>
<defs>
<clipPath id="clip0_1_946">
<rect width="35" height="35" fill="white"/>
</clipPath>
</defs>
</svg>
